<svg xmlns="http://www.w3.org/2000/svg" viewBox="0 0 16 16"><defs><style>.cls-1{fill:#fff;}</style></defs><title>Artboard 1 copy 2</title><g id="Layer_1" data-name="Layer 1"><rect width="16" height="16"/><path class="cls-1" d="M34.86,7.33c-.24-1.46-.86-2.9-2.58-2.9h0c-1.73,0-2.34,1.44-2.59,2.9-.49,3,.62,10.08,1,13.42C32,33.27,32.12,41.53,32.12,42.93s.41,1.27.41,0,0-9.66,1.36-22.18C34.25,17.41,35.36,10.29,34.86,7.33Z"/><path class="cls-1" d="M32.39,54.33a2.89,2.89,0,0,0-2.19,1,3.25,3.25,0,0,0-.9,2.3,3.31,3.31,0,0,0,.9,2.34,3,3,0,0,0,4.39,0,3.31,3.31,0,0,0,.9-2.34,3.25,3.25,0,0,0-.9-2.3A2.9,2.9,0,0,0,32.39,54.33Z"/></g></svg>