<?xml version="1.0" encoding="UTF-8"?><svg id="a" xmlns="http://www.w3.org/2000/svg" viewBox="0 0 64 64"><defs><style>.b{fill:none;stroke:#006665;stroke-miterlimit:10;}.c{fill:#006665;}</style></defs><path class="c" d="M14.43,32.93v-.52h6.83c1.46,0,2.7-.3,3.71-.9,1.02-.6,1.8-1.48,2.33-2.63.54-1.15.81-2.56.81-4.21s-.27-3.07-.81-4.24-1.31-2.06-2.33-2.68c-1.02-.61-2.25-.92-3.71-.92H6.24v-.89h15.03c2.29,0,4.29.32,6,.95s3.03,1.59,3.97,2.88c.94,1.29,1.41,2.92,1.41,4.9s-.44,3.57-1.32,4.78c-.88,1.22-2.17,2.1-3.86,2.65s-3.76.83-6.21.83h-6.83ZM6.24,50.1v-.89h14.37v.89H6.24ZM11.25,49.62V16.56h4.32v33.06h-4.32ZM32.42,50.33c-1.32,0-2.35-.24-3.09-.72-.74-.48-1.27-1.12-1.61-1.94-.33-.81-.54-1.72-.62-2.73-.09-1.01-.13-2.05-.15-3.13-.01-1.08-.08-2.12-.18-3.13-.11-1.01-.34-1.92-.7-2.73s-.95-1.46-1.74-1.94c-.8-.48-1.89-.72-3.29-.72h-6.6v-.48h7.51c2.17,0,3.89.3,5.18.9s2.25,1.39,2.9,2.37c.65.98,1.09,2.05,1.32,3.22s.35,2.34.37,3.52c.02,1.18.06,2.26.11,3.23.05.98.22,1.76.5,2.36.28.59.8.89,1.56.89.47,0,.9-.05,1.27-.15.38-.1.72-.22,1.03-.38l.32.84c-.36.2-.91.36-1.64.5-.73.14-1.55.2-2.46.2Z"/><path class="c" d="M40,32.71v-.59h5.01c1.15,0,2.26-.23,3.3-.7s1.9-1.22,2.56-2.28c.66-1.06.99-2.48.99-4.29s-.33-3.3-.99-4.49c-.66-1.18-1.52-2.07-2.56-2.65-1.05-.59-2.15-.88-3.3-.88h-13.2v-.89h13.2c3.45,0,6.21.66,8.28,1.99,2.07,1.33,3.11,3.47,3.11,6.43s-.98,5.09-2.94,6.39c-1.96,1.3-4.77,1.95-8.45,1.95h-5.01ZM31.81,50.1v-.89h13.66c1.3,0,2.51-.34,3.62-1.04,1.11-.69,1.99-1.69,2.66-2.98.67-1.3,1-2.85,1-4.66s-.34-3.26-1-4.36c-.67-1.1-1.55-1.9-2.66-2.41-1.11-.51-2.32-.76-3.62-.76h-5.46v-.57h5.94c2.14,0,4.11.27,5.9.8,1.79.53,3.23,1.39,4.3,2.57s1.62,2.76,1.62,4.74c0,3.42-1.05,5.86-3.16,7.34-2.11,1.48-4.99,2.22-8.65,2.22h-14.14ZM35.91,49.76V16.29h4.35v33.47h-4.35Z"/><rect class="b" x="1.77" y="1.77" width="60.45" height="60.45"/><rect class="b" x="3.36" y="3.36" width="57.29" height="57.29"/></svg>